<svg width="17" height="17" data-name="Capa 1" xmlns="http://www.w3.org/2000/svg" viewBox="0 0 900 901.03"><defs><linearGradient id="a" x1="8.13" y1="8.13" x2="891.87" y2="891.87" gradientUnits="userSpaceOnUse"><stop offset="0" stop-color="#1398b3"/><stop offset=".25" stop-color="#16a4ac"/><stop offset=".5" stop-color="#19b0a5"/><stop offset=".75" stop-color="#1cbc9e"/><stop offset="1" stop-color="#20c997"/></linearGradient><linearGradient id="b" x1="789.83" y1="963.78" x2="436.54" y2="351.86" gradientUnits="userSpaceOnUse"><stop offset="0" stop-color="#fff" stop-opacity="0"/><stop offset="1"/></linearGradient></defs><rect width="900" height="900" rx="27.77" ry="27.77" fill="url(#a)"/><path opacity=".2" fill="url(#b)" d="M267.39 646.9l17.46-156.64 271.78-62.76 33.09-164.08L900 566.6v333.57l-377.88.86L267.39 646.9z"/><path d="M462.13 204.27c7.41 1 14.86 1.73 22.24 2.95 30.74 5.06 59 15.93 83.81 35.26 27.2 21.23 43.16 49.15 49.76 82.76a207.74 207.74 0 013.59 39.8q.2 117.88.09 235.76c0 7.11-.14 14.23.71 21.33.35 2.89 1.51 3.82 4.25 4.16 9.08 1.11 18.11 2.56 27.19 3.67 2.89.35 3.89 1.59 3.88 4.42-.08 16-.1 32 0 48.07 0 3.26-1.33 4.15-4.33 4.14q-52.46-.08-104.91 0c-3.69 0-4.76-1.72-5.36-4.86-3.54-18.61-6.85-37.24-7.87-56.2 0-.73.11-1.57-1.07-2.22-3 3.4-6.07 6.94-9.28 10.3-29.84 31.26-64.73 53.51-108.19 60.3-16.31 2.55-32.65 2.09-49 .48-16.14-1.59-31.94-4.63-47.1-10.51-41.78-16.2-66.36-46.77-75.24-90.35-1.24-6.08-2-12.26-3-18.4v-33.58c.23-1.11.54-2.21.69-3.33 3.52-26.59 14.14-49.75 33.41-68.64 20.39-20 45.24-32.12 72.21-40.34 32.09-9.72 65.12-12.33 98.39-12.72 27.59-.31 55.19-.07 82.79-.05 2.57 0 4.8.08 4.72-3.64-.43-20.21.68-40.43-.64-60.63-2.44-37.31-26-65.79-62.34-75.33-24.73-6.48-49.63-5.5-74.47-.9-19.51 3.61-37.58 10.8-53.39 23.12a14.16 14.16 0 00-5.79 9.35c-2.26 13.54-5 27-7.32 40.52-.58 3.44-2 4.31-5.26 4.29-19.2-.11-38.41-.05-57.61-.06-5.41 0-5.45 0-5.46-5.6 0-27.09.07-54.18-.08-81.27a9.44 9.44 0 014.26-8.59c37.8-27.85 80.35-43.79 126.55-50.56 8-1.17 16.1-2 24.16-2.93zm17.56 271.65h-39.3a161.22 161.22 0 00-37.44 4c-21.73 5.05-40.69 14.95-55.71 31.81-16.34 18.35-21.34 39.74-16.83 63.5 3.73 19.66 15.27 33.11 33.77 40.66a93.51 93.51 0 0029.72 6.32c34.48 2.16 66.73-5 96.06-23.78 16.57-10.62 31-23.45 41.49-40.33a18.64 18.64 0 003.06-10.37c-.13-22.26-.06-44.51-.07-66.77 0-5-.06-5.05-5.16-5.06z" fill="#fff"/></svg>